<?xml version="1.0" encoding="UTF-8"?>
<svg width="11px" height="12px" viewBox="0 0 11 12" version="1.1" xmlns="http://www.w3.org/2000/svg" xmlns:xlink="http://www.w3.org/1999/xlink">
    <g stroke="none" stroke-width="1" fill="none" fill-rule="evenodd">
        <g transform="translate(-88.000000, -56.000000)" stroke="#0087CB">
            <g id="Group-2" transform="translate(88.000000, 56.411000)">
                <path d="M5.2862406,0.654183558 L10.2137594,2.78230397 C10.3011483,2.82363157 10.3727085,2.88829812 10.4224214,2.96679991
                C10.4721343,3.04530169 10.5,3.13763869 10.5,3.2343072 L10.5,3.2343072 L10.5,10.5890004 C10.5,10.7270715
                10.4440356,10.8520715 10.3535534,10.9425537 C10.2630712,11.033036 10.1380712,11.0890004 10,11.0890004 L10,11.0890004
                L1,11.0890004 C0.861928813,11.0890004 0.736928813,11.033036 0.646446609,10.9425537 C0.555964406,10.8520715 0.5,10.7270715
                0.5,10.5890004 L0.5,10.5890004 L0.5,3.2343072 C0.5,3.13763869 0.527865675,3.04530169 0.577578587,2.96679991
                C0.6272915,2.88829812 0.69885165,2.82363157 0.786240601,2.78230397 L0.786240601,2.78230397 L5.2862406,0.654183558 Z" />
                <path d="M6,6.08900036 C6.41421356,6.08900036 6.78921356,6.25689358 7.06066017,6.52834019 C7.33210678,6.7997868 7.5,7.1747868 7.5,7.58900036 L7.5,7.58900036 L7.5,11.0890004 L3.5,11.0890004 L3.5,7.58900036 C3.5,7.1747868 3.66789322,6.7997868 3.93933983,6.52834019 C4.21078644,6.25689358 4.58578644,6.08900036 5,6.08900036 L5,6.08900036 Z" />
            </g>
        </g>
    </g>
</svg>