<?xml version="1.0" encoding="UTF-8"?>
<svg width="15px" height="15px" viewBox="0 0 15 15" version="1.1" xmlns="http://www.w3.org/2000/svg" xmlns:xlink="http://www.w3.org/1999/xlink">
    <g stroke="none" stroke-width="1" fill="none" fill-rule="nonzero">
        <circle id="Oval" fill="#F0F0F0" cx="7.5" cy="7.5" r="7.5"></circle>
        <path d="M10.1086816,7.5 C10.1086816,8.15217773 8.94073242,9.78260742 7.5,9.78260742 C6.05926758,9.78260742 4.89131836,8.15217773 4.89131836,7.5 C4.89131836,6.05923828 6.05926758,4.89131836 7.5,4.89131836 C8.94073242,4.89131836 10.1086816,6.05923828 10.1086816,7.5 Z" id="Path" fill="#D80027"></path>
        <path d="M10.1086816,7.5 C10.1086816,8.94076172 8.94073242,10.1086816 7.5,10.1086816 C6.05926758,10.1086816 4.89131836,8.94076172 4.89131836,7.5" id="Path" fill="#0052B4"></path>
        <polygon id="Path" fill="#000000" transform="translate(10.841240, 9.690628) rotate(-45.000000) translate(-10.841240, -9.690628) " points="10.3521875 9.36458818 11.3302917 9.36458818 11.3302917 10.0166674 10.3521875 10.0166674"></polygon>
        <polygon id="Path" fill="#000000" transform="translate(9.688190, 10.843383) rotate(-45.000000) translate(-9.688190, -10.843383) " points="9.19913822 10.5173436 10.1772424 10.5173436 10.1772424 11.1694228 9.19913822 11.1694228"></polygon>
        <polygon id="Path" fill="#000000" transform="translate(12.224602, 11.073821) rotate(-45.000000) translate(-12.224602, -11.073821) " points="11.7355504 10.747781 12.7136546 10.747781 12.7136546 11.3998602 11.7355504 11.3998602"></polygon>
        <polygon id="Path" fill="#000000" transform="translate(11.071581, 12.226750) rotate(-45.000000) translate(-11.071581, -12.226750) " points="10.5825289 11.9007107 11.5606331 11.9007107 11.5606331 12.5527899 10.5825289 12.5527899"></polygon>
        <polygon id="Path" fill="#000000" transform="translate(11.532887, 10.382282) rotate(-45.000000) translate(-11.532887, -10.382282) " points="11.0438353 10.0562424 12.0219395 10.0562424 12.0219395 10.7083217 11.0438353 10.7083217"></polygon>
        <polygon id="Path" fill="#000000" transform="translate(10.380154, 11.535015) rotate(-45.000000) translate(-10.380154, -11.535015) " points="9.89110181 11.2089751 10.869206 11.2089751 10.869206 11.8610543 9.89110181 11.8610543"></polygon>
        <polygon id="Path" fill="#000000" transform="translate(10.959671, 4.042655) rotate(-135.000000) translate(-10.959671, -4.042655) " points="9.65552676 3.71661544 12.2638145 3.71661544 12.2638145 4.36869469 9.65552676 4.36869469"></polygon>
        <polygon id="Path" fill="#000000" transform="translate(9.691332, 4.158122) rotate(-135.000000) translate(-9.691332, -4.158122) " points="9.20227994 3.83209694 10.1803842 3.83209694 10.1803842 4.4841469 9.20227994 4.4841469"></polygon>
        <polygon id="Path" fill="#000000" transform="translate(10.844050, 5.311119) rotate(-135.000000) translate(-10.844050, -5.311119) " points="10.3549983 4.98509406 11.3331026 4.98509406 11.3331026 5.63714402 10.3549983 5.63714402"></polygon>
        <polygon id="Path" fill="#000000" transform="translate(11.074455, 2.774612) rotate(-135.000000) translate(-11.074455, -2.774612) " points="10.5854026 2.44857254 11.5635068 2.44857254 11.5635068 3.10065179 10.5854026 3.10065179"></polygon>
        <polygon id="Path" fill="#000000" transform="translate(12.227805, 3.927753) rotate(-135.000000) translate(-12.227805, -3.927753) " points="11.7387528 3.60171354 12.716857 3.60171354 12.716857 4.25379279 11.7387528 4.25379279"></polygon>
        <polygon id="Path" fill="#000000" transform="translate(3.350447, 11.648960) rotate(45.000000) translate(-3.350447, -11.648960) " points="2.04630282 11.3229202 4.65459052 11.3229202 4.65459052 11.9749994 2.04630282 11.9749994"></polygon>
        <polygon id="Path" fill="#000000" transform="translate(4.618340, 11.533317) rotate(45.000000) translate(-4.618340, -11.533317) " points="4.12928797 11.2072923 5.1073922 11.2072923 5.1073922 11.8593422 4.12928797 11.8593422"></polygon>
        <polygon id="Path" fill="#000000" transform="translate(3.465515, 10.380833) rotate(45.000000) translate(-3.465515, -10.380833) " points="2.97646275 10.0547933 3.95456698 10.0547933 3.95456698 10.7068725 2.97646275 10.7068725"></polygon>
        <polygon id="Path" fill="#000000" transform="translate(4.733582, 10.265370) rotate(45.000000) translate(-4.733582, -10.265370) " points="3.42943844 9.93933029 6.03772614 9.93933029 6.03772614 10.5914095 3.42943844 10.5914095"></polygon>
        <polygon id="Path" fill="#000000" transform="translate(3.350252, 3.349541) rotate(135.000000) translate(-3.350252, -3.349541) " points="2.04610788 3.02350139 4.65439558 3.02350139 4.65439558 3.67558064 2.04610788 3.67558064"></polygon>
        <polygon id="Path" fill="#000000" transform="translate(4.041882, 4.041090) rotate(135.000000) translate(-4.041882, -4.041090) " points="2.73773828 3.71505058 5.34602598 3.71505058 5.34602598 4.36712983 2.73773828 4.36712983"></polygon>
        <polygon id="Path" fill="#000000" transform="translate(4.734168, 4.733146) rotate(135.000000) translate(-4.734168, -4.733146) " points="3.43002395 4.40712133 6.03831165 4.40712133 6.03831165 5.05917128 3.43002395 5.05917128"></polygon>
    </g>
</svg>