<?xml version="1.0" encoding="UTF-8"?>
<svg width="15px" height="15px" viewBox="0 0 15 15" version="1.1" xmlns="http://www.w3.org/2000/svg" xmlns:xlink="http://www.w3.org/1999/xlink">
    <g id="Dashboard" stroke="none" stroke-width="1" fill="none" fill-rule="nonzero">
        <circle fill="#F0F0F0" cx="7.5" cy="7.5" r="7.5"></circle>
        <g transform="translate(0.258369, 1.630430)" fill="#D80027">
            <path d="M6.91555664,5.86957031 L14.7416309,5.86957031 C14.7416309,5.19263672 14.6513965,4.53685547 14.4832617,3.91303711 L6.91555664,3.91303711 L6.91555664,5.86957031 Z" id="Path"></path>
            <path d="M6.91555664,1.9565332 L13.6408301,1.9565332 C13.1817188,1.20735352 12.5946973,0.54515625 11.9102637,4.16333634e-16 L6.91555664,4.16333634e-16 L6.91555664,1.9565332 Z" id="Path"></path>
            <path d="M7.24163086,13.3695703 C9.00673828,13.3695703 10.6291113,12.7594922 11.9102637,11.7391406 L2.57299805,11.7391406 C3.85415039,12.7594922 5.47652344,13.3695703 7.24163086,13.3695703 Z" id="Path"></path>
            <path d="M0.842431641,9.78260742 L13.6408301,9.78260742 C14.0094141,9.18117187 14.2952637,8.52375 14.4832617,7.82607422 L0,7.82607422 C0.187998047,8.52375 0.473847656,9.18117187 0.842431641,9.78260742 Z" id="Path"></path>
        </g>
        <path d="M3.47414062,1.17123047 L4.15760742,1.17123047 L3.52186523,1.6330957 L3.76470703,2.38042969 L3.12899414,1.91856445 L2.49328125,2.38042969 L2.70304688,1.73481445 C2.14330078,2.20107422 1.65269531,2.74734375 1.24839844,3.35601562 L1.46739258,3.35601562 L1.06271484,3.65000977 C0.999667969,3.75518555 0.939199219,3.86203125 0.88125,3.97045898 L1.07449219,4.56521484 L0.713964844,4.30327148 C0.624345703,4.49314453 0.542373047,4.68729492 0.468691406,4.88548828 L0.681591797,5.54080078 L1.46739258,5.54080078 L0.831650391,6.00266602 L1.07449219,6.75 L0.438779297,6.28813477 L0.0579785156,6.56481445 C0.0198632813,6.87120117 0,7.18327148 0,7.5 L7.5,7.5 C7.5,3.35789062 7.5,2.86957031 7.5,-1.66533454e-15 C6.01839844,-1.66533454e-15 4.63725586,0.429785156 3.47414062,1.17123047 Z M3.76470703,6.75 L3.12899414,6.28813477 L2.49328125,6.75 L2.73612305,6.00266602 L2.10038086,5.54080078 L2.88618164,5.54080078 L3.12899414,4.7934668 L3.37180664,5.54080078 L4.15760742,5.54080078 L3.52186523,6.00266602 L3.76470703,6.75 Z M3.52186523,3.81788086 L3.76470703,4.56521484 L3.12899414,4.10334961 L2.49328125,4.56521484 L2.73612305,3.81788086 L2.10038086,3.35601562 L2.88618164,3.35601562 L3.12899414,2.60868164 L3.37180664,3.35601562 L4.15760742,3.35601562 L3.52186523,3.81788086 Z M6.45492187,6.75 L5.81920898,6.28813477 L5.18349609,6.75 L5.42633789,6.00266602 L4.7905957,5.54080078 L5.57639648,5.54080078 L5.81920898,4.7934668 L6.06202148,5.54080078 L6.84782227,5.54080078 L6.21208008,6.00266602 L6.45492187,6.75 Z M6.21208008,3.81788086 L6.45492187,4.56521484 L5.81920898,4.10334961 L5.18349609,4.56521484 L5.42633789,3.81788086 L4.7905957,3.35601562 L5.57639648,3.35601562 L5.81920898,2.60868164 L6.06202148,3.35601562 L6.84782227,3.35601562 L6.21208008,3.81788086 Z M6.21208008,1.6330957 L6.45492187,2.38042969 L5.81920898,1.91856445 L5.18349609,2.38042969 L5.42633789,1.6330957 L4.7905957,1.17123047 L5.57639648,1.17123047 L5.81920898,0.423896484 L6.06202148,1.17123047 L6.84782227,1.17123047 L6.21208008,1.6330957 Z" fill="#0052B4"></path>
    </g>
</svg>